<svg width="17" height="17" viewBox="0 0 17 17" fill="none" xmlns="http://www.w3.org/2000/svg">
<path d="M6.76195 10.75V13.75C6.76195 14.3467 6.999 14.919 7.42095 15.341C7.84291 15.7629 8.4152 16 9.01194 16L12.0119 9.25004V1.0001H3.55197C3.19023 0.996006 2.83919 1.12279 2.56355 1.35709C2.2879 1.59139 2.10622 1.91741 2.05198 2.27509L1.01699 9.02504C0.984356 9.24003 0.998855 9.45953 1.05948 9.66835C1.12011 9.87717 1.22541 10.0703 1.36809 10.2344C1.51077 10.3985 1.68742 10.5296 1.8858 10.6186C2.08418 10.7077 2.29955 10.7525 2.51698 10.75H6.76195ZM12.0119 1.0001H14.2619C14.6597 1.0001 15.0413 1.15813 15.3226 1.43943C15.6039 1.72074 15.7619 2.10226 15.7619 2.50009V7.75005C15.7619 8.14787 15.6039 8.5294 15.3226 8.81071C15.0413 9.09201 14.6597 9.25004 14.2619 9.25004H12.0119" fill="white"/>
<path d="M12.0119 1.0001H14.2619C14.6597 1.0001 15.0413 1.15813 15.3226 1.43943C15.6039 1.72074 15.7619 2.10226 15.7619 2.50009V7.75005C15.7619 8.14787 15.6039 8.5294 15.3226 8.81071C15.0413 9.09201 14.6597 9.25004 14.2619 9.25004H12.0119M6.76195 10.75V13.75C6.76195 14.3467 6.999 14.919 7.42095 15.341C7.84291 15.7629 8.4152 16 9.01194 16L12.0119 9.25004V1.0001H3.55197C3.19023 0.996006 2.83919 1.12279 2.56355 1.35709C2.2879 1.59139 2.10622 1.91741 2.05198 2.27509L1.01699 9.02504C0.984356 9.24003 0.998855 9.45953 1.05948 9.66835C1.12011 9.87717 1.22541 10.0703 1.36809 10.2344C1.51077 10.3985 1.68742 10.5296 1.8858 10.6186C2.08418 10.7077 2.29955 10.7525 2.51698 10.75H6.76195Z" stroke="white" stroke-linecap="round" stroke-linejoin="round"/>
</svg>
